<?xml version="1.0" encoding="UTF-8"?><svg id="b" xmlns="http://www.w3.org/2000/svg" xmlns:xlink="http://www.w3.org/1999/xlink" viewBox="0 0 1446.8085 1255.6432"><defs><clipPath id="d"><polyline points="0 0 1446.8085 0 1446.8085 1255.6432 0 1255.6432 0 0" style="fill:none;"/></clipPath></defs><g id="c"><g style="clip-path:url(#d);"><path d="M1223.5001,648.3732c-175.7276,29.8491-213.7922,62.0011-70.1549,159.6174-174.6916-34.2012-191.4071-3.6187-95.0823,134.2935-147.5494-93.6459-156.9093-59.2714-127.4137,100.4038-100.8869-134.5598-153.9461-115.0772-195.1283,42.5236-35.8017-159.8108-81.2334-202.0883-186.5823-73.4552,34.8777-157.8243-41.8611-145.3306-192.4391-60.2482,100.9043-132.2469,40.2156-160.0117-135.4657-135.8782,146.8068-89.2712,221.3464-154.7932,46.8014-194.7076,175.7274-29.8491,190.0663-62.6817,46.4272-160.2979,174.6935,34.1987,141.1178-39.9747,44.7932-177.8869,147.5513,93.6459,232.3498,123.5528,202.8541-36.1249,100.887,134.5623,137.7691,123.1309,178.951-34.4674,35.8017,159.8108,91.9225,147.8169,197.2713,19.1812-34.8777,157.8269-20.5273,199.0119,130.0507,113.9321-100.9042,132.2443,2.3747,145.0343,178.0579,120.9008-146.8068,89.2712-197.4856,142.302-22.9406,182.2139" style="fill:#1d262d;"/><path d="M1177.6328,614.8277c-162.4998,31.8406-197.2947,62.1719-62.5524,147.4678-162.546-26.6221-177.5658,1.7177-86.0678,125.0193-138.309-81.5716-146.4478-49.9645-116.5838,94.9442-95.6764-120.1248-144.5767-100.9562-180.2917,43.9124-35.715-144.8685-78.5115-182.2516-174.188-62.1267,29.864-144.9088-41.1068-131.496-179.4178-49.9269,91.5-123.3016,34.7831-147.0434-127.7648-120.4187,134.7442-85.2984,202.8426-147.0308,40.3428-178.8714,162.4998-31.8405,175.2799-62.1718,40.5377-147.4678,162.5442,26.6222,130.2418-40.1705,38.7436-163.4746,138.3072,81.5741,217.4225,106.6367,187.5585-38.2746,95.6765,120.1249,129.6996,108.7287,165.4145-36.1399,35.715,144.8686,87.5725,132.4553,183.249,12.3304-29.8641,144.9113-15.9092,182.1109,122.3999,100.5394-91.498,123.3016,4.4833,132.2644,167.0294,105.6398-134.7443,85.2958-180.9089,135.0068-18.4091,166.8473" style="fill:#f9fbfc;"/><polygon points="1090.7073 91.4894 932.627 329.6724 1059.5932 61.791 1090.7073 91.4894" style="fill:#1d262d;"/><polygon points="382.4832 1093.2019 580.2736 813.9945 412.5132 1124.7362 382.4832 1093.2019" style="fill:#1d262d;"/><polygon points="1017.4438 285.0117 885.7244 460.0157 1004.4958 269.954 1017.4438 285.0117" style="fill:#1d262d;"/><polygon points="1121.9541 1164.1632 978.5117 940.8696 1149.3046 1128.7414 1121.9541 1164.1632" style="fill:#1d262d;"/><polygon points="1043.965 1114.4377 911.9235 886.8372 1057.3933 1100.1133 1043.965 1114.4377" style="fill:#1d262d;"/><polygon points="195.2336 263.1042 383.5714 420.0019 177.3182 307.5866 195.2336 263.1042" style="fill:#1d262d;"/><polygon points="316.5375 113.3379 476.3289 308.4724 305.1694 130.4221 316.5375 113.3379" style="fill:#1d262d;"/><polygon points="519.5135 182.1604 529.892 209.536 553.1008 213.9283 536.3081 235.2365 540.2704 265.3267 519.5135 251.1204 498.7567 265.3267 502.719 235.2365 485.9264 213.9283 509.1351 209.536 519.5135 182.1604" style="fill:#f9fbfc;"/><polygon points="919.6683 1061.4429 930.0467 1088.8185 953.2554 1093.2082 936.4608 1114.519 940.4251 1144.6093 919.6683 1130.4028 898.9114 1144.6093 902.8737 1114.519 886.081 1093.2082 909.2898 1088.8185 919.6683 1061.4429" style="fill:#f9fbfc;"/><polygon points="1143.2183 308.4717 1153.5966 335.8472 1176.8033 340.2369 1160.0108 361.5477 1163.975 391.6379 1143.2183 377.4317 1122.4593 391.6379 1126.4236 361.5477 1109.631 340.2369 1132.8398 335.8472 1143.2183 308.4717" style="fill:#f9fbfc;"/><polygon points="272.9947 486.8244 278.1839 500.5135 289.7893 502.7083 281.392 513.3612 283.3732 528.4089 272.9947 521.3044 262.6163 528.4089 264.5974 513.3612 256.2021 502.7083 267.8055 500.5135 272.9947 486.8244" style="fill:#f9fbfc;"/><polygon points="1114.9847 806.9743 1120.1739 820.6633 1131.7793 822.8582 1123.382 833.5111 1125.3631 848.5587 1114.9847 841.4543 1104.6063 848.5587 1106.5874 833.5111 1098.1921 822.8582 1109.7955 820.6633 1114.9847 806.9743" style="fill:#f9fbfc;"/><polygon points="520.3303 1022.8689 525.5196 1036.5579 537.1249 1038.7502 528.7276 1049.4056 530.7088 1064.4532 520.3303 1057.3463 509.9519 1064.4532 511.9331 1049.4056 503.5377 1038.7502 515.1411 1036.5579 520.3303 1022.8689" style="fill:#f9fbfc;"/></g></g></svg>